# xmcd
#
# Track frame offsets: 
#        150
#        9370
#        20679
#        29821
#        41050
#        53599
#        66394
#        77063
#        89340
#        99897
#        109754
#        120366
#        131576
#        139927
#        150092
#        160627
#        179153
#        190736
#        205614
#        221424
#        233051
#        246239
#        257793
#        271377
#        284088
#        299203
#        314349
#        329136
#        344023
#
# Disc length: 4810 seconds
#
# Revision: 0
# Processed by: cddbd v1.5.2PL0 Copyright (c) Steve Scherf et al.
# Submitted via: ExactAudioCopyFreeDBPlugin 1.0
#
DISCID=b712c81d
DTITLE=Jerry Reed - The Jerry Reed Collection [J-tel]
DYEAR=2008
DGENRE=Country Classic
TTITLE0=Navy Blues
TTITLE1=U.S. Male
TTITLE2=The Claw
TTITLE3=Guitar Man
TTITLE4=Tupelo Mississippi Flash
TTITLE5=Remembering
TTITLE6=A Thing Called Love
TTITLE7=Alabama Wild Man
TTITLE8=The Likes of Me
TTITLE9=Are You From Dixie (Cause I'm from Dixie Too)
TTITLE10=Amos Moses
TTITLE11=Talk About the Good Times
TTITLE12=Welcome to Nevada
TTITLE13=You Took All the Ramblin' Out of Me
TTITLE14=When You're Hot, You're Hot
TTITLE15=Another Puff
TTITLE16=Ko-Ko Joe
TTITLE17=Lord, Mr. Ford
TTITLE18=The Uptown Poker Club
TTITLE19=The Crude Oil Blues
TTITLE20=A Good Woman's Love
TTITLE21=Let's Sing Our Song
TTITLE22=Alabama Jubilee
TTITLE23=East Bound and Down
TTITLE24=Nervous Breakdown
TTITLE25=Texas Bound and Flyin'
TTITLE26=She Got the Goldmine (And I Got the Shaft)
TTITLE27=The Bird
TTITLE28=Guitar Man [live]
EXTD=
EXTT0=
EXTT1=
EXTT2=
EXTT3=
EXTT4=
EXTT5=
EXTT6=
EXTT7=
EXTT8=
EXTT9=
EXTT10=
EXTT11=
EXTT12=
EXTT13=
EXTT14=
EXTT15=
EXTT16=
EXTT17=
EXTT18=
EXTT19=
EXTT20=
EXTT21=
EXTT22=
EXTT23=
EXTT24=
EXTT25=
EXTT26=
EXTT27=
EXTT28=
PLAYORDER=
